<?xml version="1.0" standalone="no"?>
<!DOCTYPE svg PUBLIC "-//W3C//DTD SVG 20010904//EN"
 "http://www.w3.org/TR/2001/REC-SVG-20010904/DTD/svg10.dtd">
<svg version="1.0" xmlns="http://www.w3.org/2000/svg"
 width="392.000000pt" height="128.000000pt" viewBox="0 0 392.000000 128.000000"
 preserveAspectRatio="xMidYMid meet">

<g transform="translate(0.000000,128.000000) scale(0.100000,-0.100000)"
fill="#c0c0c0" stroke="none">
<path d="M3510 1266 c-118 -26 -187 -84 -216 -182 -28 -99 0 -181 79 -229 23
-14 106 -45 184 -70 149 -48 196 -77 209 -131 9 -34 -2 -91 -21 -121 -21 -31
-89 -62 -137 -63 l-38 0 0 -55 c0 -63 1 -63 92 -44 136 29 238 127 238 231 0
51 -24 119 -56 156 -42 50 -86 71 -238 117 -66 20 -132 45 -146 55 -35 25 -54
71 -47 115 23 143 221 167 362 43 l47 -42 34 40 c18 21 33 42 34 46 0 12 -104
86 -151 107 -25 11 -65 23 -89 26 -25 4 -54 8 -65 10 -11 1 -45 -3 -75 -9z"/>
<path d="M10 1242 c0 -5 94 -204 209 -443 l209 -434 42 0 42 0 147 330 146
329 3 -332 2 -332 65 0 65 0 0 445 0 446 -91 -3 -92 -3 -140 -327 c-78 -181
-144 -328 -147 -328 -4 0 -74 147 -157 328 l-150 327 -77 3 c-42 2 -76 -1 -76
-6z"/>
<path d="M1178 823 c-97 -235 -180 -436 -183 -445 -6 -16 0 -18 56 -18 l64 0
130 321 c132 326 141 347 148 339 2 -3 64 -152 137 -332 l133 -328 63 0 c47 0
62 3 58 13 -3 6 -83 206 -178 442 l-172 430 -40 3 -39 3 -177 -428z"/>
<path d="M1850 1196 l0 -55 203 -3 204 -3 36 -28 c54 -41 77 -93 77 -172 0
-69 -15 -111 -54 -153 -43 -48 -62 -52 -271 -52 l-195 0 0 -185 0 -185 60 0
60 0 0 130 0 130 108 0 108 0 89 -130 88 -130 69 0 69 0 -95 139 -95 138 48
32 c92 59 148 179 139 295 -10 114 -74 206 -177 255 -54 25 -64 26 -263 29
l-208 4 0 -56z"/>
<path d="M2820 1069 c-118 -100 -225 -189 -238 -199 -21 -17 -23 -25 -20 -94
l3 -76 59 51 c48 41 61 48 71 37 7 -7 88 -106 180 -220 l168 -208 85 0 c82 0
84 1 71 19 -8 11 -105 128 -216 260 l-203 240 215 182 c118 100 215 183 215
185 0 2 -39 4 -87 4 l-88 -1 -215 -180z"/>
<path d="M0 560 l0 -200 65 0 65 0 0 200 0 200 -65 0 -65 0 0 -200z"/>
<path d="M0 125 c0 -70 4 -115 10 -115 6 0 10 45 10 115 0 70 -4 115 -10 115
-6 0 -10 -45 -10 -115z"/>
<path d="M60 225 c0 -11 10 -15 35 -15 l35 0 0 -100 c0 -60 4 -100 10 -100 6
0 10 40 10 99 l0 100 35 3 c69 6 41 23 -42 26 -69 2 -83 0 -83 -13z"/>
<path d="M361 226 c-34 -19 -50 -54 -51 -109 0 -41 5 -53 29 -78 24 -24 38
-29 75 -29 25 0 46 5 46 10 0 6 -18 10 -39 10 -55 0 -82 25 -88 82 -5 43 -3
50 26 79 26 26 38 30 66 27 24 -3 35 0 35 9 0 17 -67 17 -99 -1z"/>
<path d="M553 228 c-26 -12 -53 -65 -53 -102 0 -38 25 -93 48 -105 62 -33 134
3 148 74 19 101 -59 173 -143 133z m90 -28 c32 -25 42 -69 27 -115 -31 -95
-143 -62 -143 42 0 38 4 50 27 70 33 28 56 29 89 3z"/>
<path d="M750 126 c0 -71 4 -116 10 -116 6 0 10 39 10 97 l0 98 65 -98 c36
-53 70 -97 75 -97 6 0 10 46 10 115 0 70 -4 115 -10 115 -6 0 -10 -39 -10 -97
l0 -96 -62 93 c-35 52 -69 96 -75 98 -10 3 -13 -24 -13 -112z"/>
<path d="M991 214 c-11 -15 -21 -31 -21 -36 0 -24 23 -47 57 -59 65 -20 78
-42 46 -74 -12 -13 -28 -16 -60 -12 -30 3 -43 1 -40 -7 2 -6 23 -12 46 -14 55
-4 91 18 91 56 0 38 -10 50 -55 65 -76 27 -74 83 4 81 54 -1 49 20 -6 24 -34
3 -44 -1 -62 -24z"/>
<path d="M1160 151 c0 -74 3 -92 21 -115 25 -32 84 -36 120 -7 22 17 24 27 24
107 0 119 -19 121 -25 4 -5 -95 -13 -110 -56 -110 -47 0 -59 22 -62 119 -2 50
-8 91 -13 91 -5 0 -9 -40 -9 -89z"/>
<path d="M1386 233 c-3 -3 -6 -55 -6 -115 l0 -108 65 0 c37 0 65 4 65 10 0 6
-22 10 -50 10 l-50 0 0 99 c0 91 -7 121 -24 104z"/>
<path d="M1497 234 c-13 -13 5 -24 39 -24 l34 0 0 -100 c0 -60 4 -100 10 -100
6 0 10 40 10 100 l0 100 35 0 c24 0 35 5 35 15 0 12 -15 15 -78 15 -43 0 -82
-3 -85 -6z"/>
<path d="M1700 125 c0 -70 4 -115 10 -115 6 0 10 45 10 115 0 70 -4 115 -10
115 -6 0 -10 -45 -10 -115z"/>
<path d="M1780 125 c0 -70 4 -115 10 -115 6 0 10 39 10 97 l0 98 63 -98 c34
-53 68 -97 75 -97 9 0 12 30 12 115 0 70 -4 115 -10 115 -6 0 -10 -39 -10 -97
l0 -98 -65 98 c-36 53 -70 97 -75 97 -6 0 -10 -46 -10 -115z"/>
<path d="M2063 230 c-13 -5 -32 -24 -43 -42 -41 -67 -12 -161 53 -173 19 -4
47 -5 63 -3 28 3 29 5 32 61 l3 57 -36 0 c-24 0 -35 -4 -35 -15 0 -9 9 -15 25
-15 22 0 25 -4 25 -35 0 -33 -2 -35 -34 -35 -18 0 -45 9 -59 20 -73 58 -14
185 78 168 17 -4 25 -1 25 8 0 16 -61 18 -97 4z"/>
<path d="M2318 229 c-20 -11 -23 -50 -7 -78 10 -14 7 -24 -12 -50 -22 -30 -22
-34 -8 -59 11 -20 24 -28 51 -30 21 -2 47 2 58 8 16 9 25 8 36 -1 19 -15 30
-4 15 15 -9 11 -10 20 -2 35 14 25 14 61 1 61 -5 0 -10 -8 -10 -17 0 -10 -5
-25 -10 -33 -8 -12 -14 -10 -39 14 l-30 29 24 23 c57 53 0 122 -67 83z m70
-35 c2 -11 -6 -28 -18 -39 -20 -18 -21 -18 -35 1 -16 21 -19 46 -8 58 15 15
58 1 61 -20z m-13 -114 c25 -26 27 -33 15 -41 -8 -5 -28 -8 -45 -7 -23 2 -31
9 -33 26 -3 22 13 52 27 52 4 0 20 -14 36 -30z"/>
<path d="M2592 224 c-18 -12 -22 -24 -20 -52 3 -33 7 -38 48 -53 52 -19 70
-41 54 -66 -8 -13 -24 -18 -58 -18 -52 0 -58 -18 -6 -23 51 -5 76 5 90 37 15
38 2 64 -42 80 -54 20 -63 27 -66 49 -4 28 31 46 74 37 34 -6 48 8 18 19 -28
11 -69 6 -92 -10z"/>
<path d="M2760 125 l0 -115 65 0 c37 0 65 4 65 10 0 6 -25 10 -55 10 l-55 0 0
45 0 45 45 0 c25 0 45 5 45 10 0 6 -20 10 -45 10 -45 0 -45 0 -45 35 l0 35 50
0 c38 0 50 4 50 15 0 12 -13 15 -60 15 l-60 0 0 -115z"/>
<path d="M2940 126 c0 -71 4 -116 10 -116 6 0 10 23 10 50 0 38 4 50 15 50 8
0 31 -22 51 -50 20 -27 40 -50 45 -50 14 0 11 8 -21 56 -17 24 -26 44 -20 44
19 0 50 40 50 63 0 35 -33 59 -90 65 l-50 5 0 -117z m108 56 c5 -33 -15 -52
-54 -52 -33 0 -34 1 -34 41 l0 40 43 -3 c35 -3 43 -7 45 -26z"/>
<path d="M3151 128 c22 -62 42 -115 45 -117 10 -10 24 18 58 113 39 106 41
116 27 116 -5 0 -24 -43 -41 -96 -18 -52 -34 -93 -37 -90 -3 3 -19 44 -37 92
-17 48 -36 89 -43 91 -7 3 5 -43 28 -109z"/>
<path d="M3330 126 c0 -98 2 -116 15 -116 13 0 15 17 13 112 -2 78 -7 113 -15
116 -10 3 -13 -24 -13 -112z"/>
<path d="M3461 226 c-34 -19 -50 -54 -51 -109 0 -41 5 -53 29 -78 24 -24 38
-29 75 -29 25 0 46 5 46 10 0 6 -18 10 -40 10 -30 0 -47 7 -65 25 -59 58 -9
172 70 163 22 -2 34 0 32 6 -5 16 -69 18 -96 2z"/>
<path d="M3610 125 l0 -115 65 0 c37 0 65 4 65 10 0 6 -25 10 -56 10 l-55 0 3
43 c3 42 3 42 46 45 56 4 54 22 -3 22 -45 0 -45 0 -45 34 l0 35 53 3 c72 4 65
22 -10 26 l-63 3 0 -116z"/>
<path d="M3801 214 c-11 -15 -21 -31 -21 -36 0 -24 23 -47 57 -59 65 -20 78
-42 46 -74 -12 -13 -28 -16 -60 -12 -30 3 -43 1 -40 -7 2 -6 23 -12 46 -14 55
-4 91 18 91 56 0 38 -10 50 -55 65 -76 27 -74 83 4 81 54 -1 49 20 -6 24 -34
3 -44 -1 -62 -24z"/>
</g>
</svg>
